<svg xmlns="http://www.w3.org/2000/svg" viewBox="0 -46 200 240"><path fill="#20231f" d="M 86.2,15.5 L 89.3,16.3 92.5,17 95.5,17.9 98.4,19.1 101.1,20.4 103.7,22 106.2,23.8 108.5,25.8 110.7,28 112.7,30.4 102.3,36.3 101.5,34.3 100.5,32.2 99.4,30.2 98,28.3 96.5,26.3 94.8,24.4 92.8,22.5 90.7,20.6 88.3,18.6 85.6,17.1"/><path fill="#20231f" d="M 112.7,30.4 L 113.2,34.9 110.4,38.6 105.9,39.1 102.3,36.3"/><path fill="#20231f" d="M 41.9,30.9 L 42.6,36.6 43.2,41.9 43.3,46.9 43,51.6 42.4,56 41.4,60.1 39.9,63.9 38,67.4 35.7,70.5 32.8,73.3 26.1,63.3 28,62.3 29.8,60.9 31.5,59 33.2,56.6 34.8,53.6 36.2,50.1 37.4,46.1 38.5,41.6 39.5,36.5 40.1,31"/><path fill="#20231f" d="M 32.8,73.3 L 28.3,74.1 24.5,71.6 23.6,67.1 26.1,63.3"/><path fill="#20231f" d="M 42,41 L 169,41 169,45 42,45"/><path fill="#20231f" d="M 174.9,43.8 L 174.1,45.7 173.2,47.6 172.1,49.6 170.8,51.7 169.4,53.9 167.8,56.2 166,58.8 164,61.4 161.8,64.2 159.7,67.4 158.2,66.5 159.6,63.1 160.5,59.7 161.3,56.5 162,53.7 162.5,51 162.9,48.6 163.2,46.5 163.3,44.7 163.2,43.2 163,42.1"/><path fill="#20231f" d="M 163,41 L 169,36 180,45 175,48 163,53"/><path fill="#20231f" d="M 63.1,71.6 L 55.9,134.6 43.3,139.2 51.9,64.3"/><path fill="#20231f" d="M 50,124 L 38,134 48,144 56,136 50,134"/><path fill="#20231f" d="M 50,132 L 139,132 139,136 50,136"/><path fill="#20231f" d="M 57,71 L 144,71 144,75 57,75"/><path fill="#20231f" d="M 149,74 L 144.8,136.4 132.3,141.4 137.9,73"/><path fill="#20231f" d="M 138,71 L 144,66 155,75 150,78 138,83"/><path fill="#20231f" d="M 107,73 L 101,134 88.9,134 94.9,73"/><path fill="#20231f" d="M 12,100 L 188,100 188,104 12,104"/><path fill="#20231f" d="M 188,100 L 164,102 176,90"/><path fill="#20231f" d="M 81.4,151 L 76.6,155.1 71.7,159 66.7,162.9 61.6,166.7 56.4,170.4 51.1,174 45.7,177.5 40.1,180.8 34.4,183.9 28.4,186.7 27.5,185.2 32.2,180.8 37,176.4 41.8,172.2 46.5,168 51.1,163.8 55.7,159.6 60.2,155.3 64.6,151 68.9,146.7 73.1,142.3"/><path fill="#20231f" d="M 72.4,143 L 81.4,151 73.3,142.1"/><path fill="#20231f" d="M 81.4,151 L 82,154.5 76.4,153"/><path fill="#20231f" d="M 114.2,145.5 L 121.1,147.4 127.6,149.6 133.8,152.2 139.6,155 145.1,158 150.3,161.1 155.1,164.5 159.6,168.1 163.8,171.9 167.7,175.8 158.4,183.4 155.5,179.6 152.2,175.9 148.6,172.2 144.7,168.6 140.3,165 135.6,161.4 130.6,157.9 125.2,154.4 119.5,150.8 113.5,147.2"/><path fill="#20231f" d="M 167.7,175.8 L 169,180.2 166.8,184.3 162.5,185.5 158.4,183.4"/></svg>
