<svg xmlns="http://www.w3.org/2000/svg" viewBox="0 -46 200 240"><path fill="#20231f" d="M 152.0 17.0 L 155.0 19.0 L 152.0 20.8 L 152.0 58.0 L 166.1 58.0 L 176.1 48.0 L 188.1 58.0 L 188.1 62.0 L 152.0 62.0 L 152.0 107.0 L 165.4 107.0 L 171.4 102.0 L 182.4 111.0 L 177.4 115.0 L 177.4 177.0 L 165.4 183.0 L 165.4 171.0 L 126.5 171.0 L 126.5 183.0 L 114.5 189.0 L 114.5 101.0 L 126.5 107.0 L 140.0 107.0 L 140.0 62.0 L 103.8 62.0 L 103.8 58.0 L 140.0 58.0 L 140.0 15.0 Z M 39.8 125.5 L 39.5 123.3 L 39.1 121.1 L 38.5 119.0 L 37.9 116.8 L 37.2 114.6 L 35.4 110.0 L 34.0 108.0 L 35.3 106.8 L 37.2 108.5 L 39.4 110.0 L 41.4 111.7 L 43.3 113.5 L 45.0 115.5 L 46.6 117.6 L 48.1 119.8 L 49.5 122.1 L 50.7 124.6 L 51.8 127.2 L 51.0 131.6 L 47.711111068725586 134.0 L 70.07878789901733 134.0 L 70.8 132.3 L 71.7 129.0 L 72.6 125.8 L 73.6 122.7 L 74.5 119.8 L 75.3 116.9 L 76.1 114.2 L 76.8 111.5 L 77.5 109.0 L 77.8711420059204 107.45357484817505 L 77.7 107.4 L 78.35454549789429 105.8 L 19.1 105.8 L 19.1 101.8 L 54.5 101.8 L 54.5 85.0 L 66.5 87.0 L 69.5 89.0 L 66.5 90.8 L 66.5 101.8 L 79.9 101.8 L 89.9 91.8 L 101.9 101.8 L 101.9 105.8 L 79.69655170440674 105.8 L 89.2 111.0 L 91.2 114.0 L 86.97346935272216 114.6673469543457 L 86.3 115.7 L 84.7 118.1 L 83.1 120.6 L 81.3 123.1 L 77.5 128.3 L 75.4 130.9 L 73.1 133.6 L 72.81034479141235 134.0 L 87.3 134.0 L 97.3 124.0 L 109.3 134.0 L 109.3 138.0 L 66.5 138.0 L 66.5 157.6 L 78.7 157.6 L 88.7 147.6 L 100.7 157.6 L 100.7 161.6 L 66.5 161.6 L 66.5 181.9 L 54.5 187.9 L 54.5 161.6 L 20.2 161.6 L 20.2 157.6 L 54.5 157.6 L 54.5 138.0 L 11.6 138.0 L 11.6 134.0 L 45.6125 134.0 L 42.8 133.5 L 40.1 129.9 L 40.0 127.7 Z M 126.5 167.0 L 165.4 167.0 L 165.4 111.0 L 126.5 111.0 Z M 66.3 17.5 L 68.4 20.4 L 62.9632327079773 21.44920072555542 L 62.0 22.5 L 60.7 23.7 L 59.5 24.9 L 58.1 26.1 L 56.7 27.2 L 56.56363639831543 27.3 L 83.9 27.3 L 89.9 22.3 L 100.9 31.3 L 95.9 35.3 L 95.9 85.5 L 83.9 91.5 L 83.9 83.5 L 37.0 83.5 L 37.0 86.5 L 25.0 92.5 L 25.0 21.3 L 37.0 27.3 L 53.5 27.3 L 53.7 25.4 L 54.0 23.7 L 54.3 22.1 L 54.7 18.9 L 54.9 17.4 L 55.0 16.0 L 55.0 14.382758617401123 L 54.7 14.3 L 55.0 13.4 L 55.0 13.3 L 55.029658794403076 13.311023616790772 L 55.5 11.9 Z M 37.0 65.4 L 37.0 79.5 L 83.9 79.5 L 83.9 65.4 Z M 37.0 48.3 L 37.0 61.4 L 83.9 61.4 L 83.9 48.3 Z M 37.0 31.3 L 37.0 44.3 L 83.9 44.3 L 83.9 31.3 Z "/></svg>
