<svg xmlns="http://www.w3.org/2000/svg" viewBox="0 -46 200 240"><path fill="#20231f" d="M 81.2,14.4 L 85.2,15.2 89.1,15.8 92.8,16.6 96.2,17.6 99.4,18.9 102.3,20.3 105.1,22 107.6,23.9 109.8,26 111.8,28.5 101.2,34.2 100.7,32.5 99.9,30.8 98.7,29 97.2,27.2 95.3,25.3 93.1,23.4 90.5,21.6 87.6,19.6 84.4,17.7 80.7,16.1"/><path fill="#20231f" d="M 111.8,28.5 L 112.2,33 109.4,36.6 104.8,37 101.2,34.2"/><path fill="#20231f" d="M 20,41 L 182,41 182,45 20,45"/><path fill="#20231f" d="M 182,41 L 158,43 170,31"/><path fill="#20231f" d="M 58.3,52.8 L 54.9,61.4 51.4,69.8 47.6,78.1 43.6,86.1 39.4,94.1 35,101.8 30.4,109.3 25.5,116.6 20.3,123.7 14.7,130.4 13.2,129.5 17.1,121.7 20.9,113.9 24.6,106.1 28.3,98.3 31.8,90.3 35.2,82.3 38.4,74.1 41.4,65.9 44.3,57.5 46.9,49"/><path fill="#20231f" d="M 46.6,49.9 L 58.3,52.8 47.5,47.5"/><path fill="#20231f" d="M 58.3,52.8 L 60.5,55.7 54.8,56.9"/><path fill="#20231f" d="M 44,96 L 44,182 32,188 32,94"/><path fill="#20231f" d="M 44,96 L 47,98 42,101"/><path fill="#20231f" d="M 63,63 L 94,63 94,67 63,67"/><path fill="#20231f" d="M 99.4,66 L 80.7,112.1 67.3,113 87.4,65"/><path fill="#20231f" d="M 88,63 L 94,58 105,67 100,70 88,75"/><path fill="#20231f" d="M 76,106 L 100,106 100,110 76,110"/><path fill="#20231f" d="M 105.9,108.3 L 104.7,119.1 102.7,129.3 100.1,138.9 96.8,147.8 92.8,156.1 88,163.6 82.7,170.4 76.6,176.4 69.8,181.5 62.4,185.7 61.5,184.2 67.4,178.6 72.8,172.6 77.5,166.3 81.6,159.6 85.1,152.3 88.1,144.5 90.4,136.2 92.2,127.3 93.4,117.8 94,107.6"/><path fill="#20231f" d="M 94,106 L 100,101 111,110 106,113 94,118"/><path fill="#20231f" d="M 71.1,122.6 L 77.1,133.8 83.4,143.5 90.2,151.5 97.7,158 106.4,163.1 116.6,166.9 128.6,169.6 142.7,171 159.3,171.3 178.6,170.4 179.3,183.5 159.3,183.8 141.8,182.8 126.5,180.4 113.3,176.6 102.1,171.3 92.5,164.5 84.7,156.3 78.4,146.6 73.4,135.6 69.5,123.2"/><path fill="#20231f" d="M 179.3,183.5 L 178.6,170.4 189.7,169.7"/><path fill="#20231f" d="M 171.4,59.9 L 167,61.3 162.3,62.7 157.4,64 152.2,65.3 146.8,66.4 141.2,67.4 135.3,68.3 129.2,69.1 122.8,69.6 116.1,69.8 115.8,68.1 122.1,65.9 128.1,63.8 133.8,61.9 139.4,60.1 144.6,58.2 149.6,56.4 154.3,54.5 158.7,52.6 162.8,50.7 166.7,48.8"/><path fill="#20231f" d="M 165.7,49.2 L 171.4,59.9 175.6,58.1"/><path fill="#20231f" d="M 175.6,58.1 L 175.8,61.3 169.4,58.6"/><path fill="#20231f" d="M 115,90 L 180,90 180,94 115,94"/><path fill="#20231f" d="M 180,90 L 156,92 168,80"/><path fill="#20231f" d="M 111,121 L 185,121 185,125 111,125"/><path fill="#20231f" d="M 185,121 L 161,123 173,111"/><path fill="#20231f" d="M 153,62 L 153,162 141,168 141,60"/><path fill="#20231f" d="M 153,62 L 156,64 151,67"/></svg>
