<svg xmlns="http://www.w3.org/2000/svg" viewBox="0 -46 200 240"><path fill="#20231f" d="M 73.6,19.2 L 71.5,25.7 68.9,32.1 65.6,38.5 61.8,44.9 57.4,51.3 52.5,57.6 47,64 40.8,70.3 34,76.5 26.6,82.6 25.3,81.3 31.3,73.9 36.8,66.7 41.9,59.8 46.4,53.1 50.3,46.6 53.8,40.3 56.6,34.1 58.9,28.1 60.7,22.3 61.9,16.6"/><path fill="#20231f" d="M 61.7,17.6 L 73.6,19.2 62.3,14.8"/><path fill="#20231f" d="M 73.6,19.2 L 76.1,21.9 70.5,23.7"/><path fill="#20231f" d="M 55,40 L 169,40 169,44 55,44"/><path fill="#20231f" d="M 174.9,41.8 L 175.2,62.6 175.1,81.7 174.8,99.1 174.1,114.7 173,128.6 171.7,140.9 170,151.5 168,160.4 165.5,167.8 162.4,173.9 152.4,167.3 154.4,163.3 156.4,157.3 158.2,149.2 159.8,139.3 161.1,127.6 162.1,114 162.8,98.7 163.1,81.6 163.2,62.7 163,42.1"/><path fill="#20231f" d="M 163,40 L 169,35 180,44 175,47 163,52"/><path fill="#20231f" d="M 162.4,173.9 L 161,175.9 159.4,177.7 157.6,179.4 155.7,180.9 153.7,182.1 151.5,183.2 149.2,184 146.9,184.5 144.4,184.8 142,185 142,173 143.4,172.9 144.7,172.7 145.9,172.4 147,172.1 148,171.6 148.9,171 149.8,170.3 150.7,169.5 151.6,168.5 152.4,167.3"/><path fill="#20231f" d="M 142,179 L 142,173 122,173 122,176"/><path fill="#20231f" d="M 45.4,95.9 L 53.5,95.4 61.8,95 70.2,94.6 78.8,94.2 87.6,93.9 96.5,93.7 105.6,93.6 114.9,93.5 124.3,93.7 133.9,94.1 134,95.8 124.6,97.5 115.3,98.9 106.1,100.1 97.1,101.3 88.3,102.4 79.6,103.5 71.1,104.6 62.7,105.7 54.6,106.7 46.5,107.8"/><path fill="#20231f" d="M 46.5,107.8 L 45.4,95.9 43.4,96.1"/><path fill="#20231f" d="M 46.5,107.8 L 48.8,110.6 52.2,104.3"/><path fill="#20231f" d="M 106.2,75.6 L 111.8,77.6 117.1,79.7 121.9,81.8 126.3,84.1 130.3,86.4 133.9,88.8 137.2,91.3 140.1,93.9 142.7,96.6 144.8,99.5 134.2,105.1 133.4,103 132,100.7 130.3,98.3 128,95.6 125.3,92.9 122.2,90 118.6,87 114.6,83.9 110.3,80.6 105.4,77.2"/><path fill="#20231f" d="M 144.8,99.5 L 145.2,104 142.4,107.6 137.8,108 134.2,105.1"/><path fill="#20231f" d="M 99.7,62.7 L 93.8,68.7 87.6,74.7 81.4,80.5 75.1,85.9 69,90.9 63.2,95.1 57.7,98.5 52.7,100.8 48.3,101.7 44.7,100.8 45.2,99.1 47.4,98 50.3,96 54.1,93 58.5,89.1 63.5,84.5 68.8,79.1 74.3,73.3 79.9,67.2 85.5,60.9 90.8,54.7"/><path fill="#20231f" d="M 90.2,55.4 L 99.7,62.7 91.2,54.3"/><path fill="#20231f" d="M 99.7,62.7 L 100.6,66.2 94.9,65.1"/><path fill="#20231f" d="M 48.7,148.9 L 56.9,148.8 65.1,148.7 73.3,148.6 81.5,148.5 89.7,148.5 97.9,148.4 106.1,148.4 114.4,148.4 122.6,148.6 130.9,149.1 131,150.8 122.9,152.4 114.7,153.8 106.6,154.9 98.4,156 90.2,156.9 82,157.8 73.8,158.6 65.6,159.4 57.4,160.2 49.2,160.9"/><path fill="#20231f" d="M 49.2,160.9 L 48.7,148.9 46.7,149"/><path fill="#20231f" d="M 49.2,160.9 L 51.4,163.8 55.1,157.6"/><path fill="#20231f" d="M 118.3,137.7 L 121.4,139.1 124.7,140.2 127.7,141.6 130.6,143 133.3,144.6 135.8,146.3 138.2,148.1 140.5,150 142.6,152.1 144.5,154.3 134.3,160.5 133.5,158.6 132.4,156.6 131.3,154.5 129.9,152.4 128.3,150.3 126.5,148.1 124.5,145.9 122.4,143.6 120.1,141.3 117.4,139.2"/><path fill="#20231f" d="M 144.5,154.3 L 145.2,158.8 142.5,162.5 138,163.2 134.3,160.5"/><path fill="#20231f" d="M 103.5,104 L 99.3,109.8 94.8,115.5 90,120.9 84.9,126.2 79.6,131.4 74,136.3 68.1,141.1 61.9,145.6 55.4,149.8 48.5,153.7 47.4,152.2 53.1,146.8 58.5,141.4 63.7,136.1 68.8,130.8 73.5,125.5 78,120 82.2,114.5 86.2,109 89.9,103.3 93.3,97.6"/><path fill="#20231f" d="M 92.8,98.4 L 103.5,104 93.9,96.8"/><path fill="#20231f" d="M 103.5,104 L 104.9,107.3 99.1,107.2"/><path fill="#20231f" d="M 34,118 L 153,118 153,122 34,122"/><path fill="#20231f" d="M 153,118 L 129,120 141,108"/></svg>
