<svg xmlns="http://www.w3.org/2000/svg" viewBox="0 -46 200 240"><path fill="#20231f" d="M 51.1,20.2 L 48,26.7 44.8,33 41.5,39 38.1,44.9 34.6,50.5 30.9,55.9 27.1,61 23.2,65.9 19,70.4 14.7,74.5 13.2,73.4 16,68.1 18.8,62.8 21.6,57.5 24.4,52 27.2,46.3 29.9,40.5 32.5,34.6 35.1,28.4 37.6,22.1 40,15.6"/><path fill="#20231f" d="M 39.6,16.5 L 51.1,20.2 40.6,14.3"/><path fill="#20231f" d="M 51.1,20.2 L 53.1,23.2 47.4,24"/><path fill="#20231f" d="M 56.2,58 L 52.8,65.6 49.3,72.9 45.7,80 41.8,86.9 37.8,93.5 33.6,99.9 29.3,106 24.7,111.9 19.8,117.4 14.7,122.5 13.2,121.4 16.7,115.1 20.2,108.8 23.7,102.5 27.1,96 30.4,89.4 33.6,82.6 36.6,75.6 39.5,68.5 42.3,61.2 45,53.7"/><path fill="#20231f" d="M 44.6,54.7 L 56.2,58 45.5,52.4"/><path fill="#20231f" d="M 56.2,58 L 58.3,61 52.5,62"/><path fill="#20231f" d="M 42,97 L 42,182 30,188 30,95"/><path fill="#20231f" d="M 42,97 L 45,99 40,102"/><path fill="#20231f" d="M 60,45 L 132,45 132,49 60,49"/><path fill="#20231f" d="M 132,45 L 108,47 120,35"/><path fill="#20231f" d="M 100.9,27.1 L 100,71 87.9,71 89,24.8"/><path fill="#20231f" d="M 100.9,27.1 L 103.9,29.1 98.8,31.1"/><path fill="#20231f" d="M 79,69 L 79,110 67,116 67,63"/><path fill="#20231f" d="M 73,69 L 117,69 117,73 73,73"/><path fill="#20231f" d="M 123,71 L 123,107 111,113 111,71"/><path fill="#20231f" d="M 111,69 L 117,64 128,73 123,77 111,71"/><path fill="#20231f" d="M 73,99 L 117,99 117,103 73,103"/><path fill="#20231f" d="M 75,124 L 75,164 63,170 63,118"/><path fill="#20231f" d="M 69,124 L 123,124 123,128 69,128"/><path fill="#20231f" d="M 129,126 L 129,157 117,157 117,126"/><path fill="#20231f" d="M 117,124 L 123,119 134,128 129,132 117,126"/><path fill="#20231f" d="M 117,157 L 119.4,160.6 123,163 126.6,160.6 129,157"/><path fill="#20231f" d="M 129,157 L 128.8,159.5 128.4,162 127.6,164.4 126.3,166.7 124.7,168.7 122.7,170.3 120.4,171.6 118,172.4 115.5,172.8 113,173 113,161 114.2,160.9 115.1,160.7 115.7,160.5 116,160.4 116.2,160.2 116.4,160 116.5,159.7 116.7,159.1 116.9,158.2 117,157"/><path fill="#20231f" d="M 113,167 L 113,161 105,161 105,164"/><path fill="#20231f" d="M 101,105 L 101,177 89,183 89,103"/><path fill="#20231f" d="M 101,105 L 104,107 99,110"/><path fill="#20231f" d="M 135,35 L 176,35 176,39 135,39"/><path fill="#20231f" d="M 176,35 L 156,37 166,26"/><path fill="#20231f" d="M 129,77 L 186,77 186,81 129,81"/><path fill="#20231f" d="M 186,77 L 162,79 174,67"/><path fill="#20231f" d="M 163,77 L 163,162 151,162 151,77"/><path fill="#20231f" d="M 151,162 L 153.4,165.6 157,168 160.6,165.6 163,162"/><path fill="#20231f" d="M 163,162 L 162.8,164.5 162.4,167 161.6,169.4 160.3,171.7 158.7,173.7 156.7,175.3 154.4,176.6 152,177.4 149.5,177.8 147,178 147,166 148.2,165.9 149.1,165.7 149.7,165.5 150,165.4 150.2,165.2 150.4,165 150.5,164.7 150.7,164.1 150.9,163.2 151,162"/><path fill="#20231f" d="M 147,172 L 147,166 133,166 133,169"/></svg>
