<svg xmlns="http://www.w3.org/2000/svg" viewBox="0 -46 200 240"><path fill="#20231f" d="M 13,38 L 110,38 110,42 13,42"/><path fill="#20231f" d="M 110,38 L 86,40 98,28"/><path fill="#20231f" d="M 49,16 L 49,53 37,59 37,14"/><path fill="#20231f" d="M 49,16 L 52,18 47,21"/><path fill="#20231f" d="M 81,16 L 81,60 69,66 69,14"/><path fill="#20231f" d="M 81,16 L 84,18 79,21"/><path fill="#20231f" d="M 52.4,64.6 L 50.1,70.7 47.5,76.7 44.5,82.6 41.2,88.2 37.5,93.7 33.5,99 29.1,104 24.3,108.9 19.2,113.4 13.6,117.6 12.3,116.3 16.4,110.8 20.3,105.4 23.9,100 27.2,94.6 30.3,89.2 33,83.7 35.5,78.2 37.6,72.6 39.4,67 40.9,61.2"/><path fill="#20231f" d="M 40.6,62.2 L 52.4,64.6 41.4,59.6"/><path fill="#20231f" d="M 52.4,64.6 L 54.8,67.3 49.1,68.8"/><path fill="#20231f" d="M 39,78 L 90,78 90,82 39,82"/><path fill="#20231f" d="M 96,80 L 95.9,94.8 95.6,108.5 95.2,120.9 94.6,132.2 93.8,142.3 92.9,151.2 91.8,158.9 90.4,165.6 88.8,171.2 86.9,175.8 76.2,170.3 77.5,167.3 78.7,162.8 79.9,156.9 81,149.7 81.9,141.2 82.6,131.4 83.2,120.4 83.6,108.2 83.9,94.7 84,80"/><path fill="#20231f" d="M 84,78 L 90,73 101,82 96,85 84,90"/><path fill="#20231f" d="M 86.9,175.8 L 85.6,178 84.2,180 82.5,181.9 80.7,183.5 78.7,184.9 76.6,186 74.3,186.9 71.9,187.5 69.5,187.8 67,188 67,176 68.3,175.9 69.6,175.7 70.6,175.4 71.6,175.1 72.5,174.6 73.3,174 74.1,173.4 74.8,172.5 75.5,171.5 76.2,170.3"/><path fill="#20231f" d="M 67,182 L 67,176 49,176 49,179"/><path fill="#20231f" d="M 136.6,16.3 L 133.7,26.3 130.5,36 127,45.4 123.2,54.4 119,63.2 114.5,71.6 109.6,79.7 104.4,87.4 98.8,94.7 92.7,101.5 91.2,100.4 95.6,92.5 99.9,84.6 103.9,76.5 107.7,68.2 111.3,59.7 114.6,51 117.6,42 120.3,32.8 122.7,23.3 124.9,13.5"/><path fill="#20231f" d="M 124.7,14.5 L 136.6,16.3 125.3,11.8"/><path fill="#20231f" d="M 136.6,16.3 L 139,18.9 133.5,20.7"/><path fill="#20231f" d="M 115,61 L 187,61 187,65 115,65"/><path fill="#20231f" d="M 187,61 L 163,63 175,51"/><path fill="#20231f" d="M 164.8,64.6 L 162.2,81.3 158.5,97.1 153.9,112 148.1,125.9 141.4,139 133.7,151 124.9,162.1 115.1,172.1 104.3,181 92.5,188.7 91.4,187.2 101.8,178.1 111.3,168.3 119.8,157.9 127.3,146.8 133.9,134.9 139.6,122.3 144.3,108.8 148.1,94.5 151,79.3 152.9,63.3"/><path fill="#20231f" d="M 152.8,64.3 L 164.8,64.6 153.1,61.2"/><path fill="#20231f" d="M 164.8,64.6 L 167.6,66.9 162.3,69.3"/><path fill="#20231f" d="M 110,73.8 L 113.8,88.4 118.2,101.9 123.3,114.4 129.2,125.8 135.9,136.1 143.4,145.4 151.7,153.8 160.9,161.1 170.9,167.5 181.8,173 176.1,184.9 164.4,178.2 153.7,170.5 144.1,161.7 135.5,152 128.1,141.3 121.8,129.6 116.6,117.1 112.5,103.6 109.7,89.3 108.2,74.1"/><path fill="#20231f" d="M 176.1,184.9 L 181.8,173 187.5,175.7"/></svg>
