<svg xmlns="http://www.w3.org/2000/svg" viewBox="0 -46 200 240"><path fill="#20231f" d="M 70.0 177.1 L 90.0 177.1 L 91.2 177.0 L 92.1 176.8 L 92.7 176.7 L 93.0 176.5 L 93.4 176.1 L 93.7 175.2 L 93.9 174.3 L 94.0 173.1 L 94.0 154.7 L 58.0 154.7 L 46.0 160.7 L 46.0 124.9 L 58.0 130.9 L 142.0 130.9 L 148.0 125.9 L 159.0 134.9 L 154.0 138.9 L 154.0 154.7 L 142.0 160.7 L 142.0 154.7 L 106.0 154.7 L 106.0 173.1 L 105.8 175.6 L 105.4 178.1 L 104.6 180.5 L 103.3 182.8 L 101.7 184.8 L 99.7 186.5 L 97.4 187.7 L 95.0 188.5 L 92.5 188.9 L 90.0 189.1 L 90.0 183.1 L 70.0 180.1 Z M 163.3 180.1 L 159.3 178.0 L 155.1 175.8 L 150.6 173.7 L 145.9 171.6 L 140.9 169.5 L 135.7 167.3 L 130.3 164.9 L 124.7 162.4 L 125.1 160.7 L 131.3 161.3 L 137.2 162.1 L 142.9 163.2 L 148.3 164.4 L 153.5 165.8 L 158.4 167.2 L 163.2 168.7 L 167.7 170.3 L 172.0 172.0 L 176.1 173.7 L 179.0 177.3 L 178.6 181.8 L 175.0 184.7 L 170.5 184.3 L 167.0 182.2 Z M 66.77975463867188 164.81472396850586 L 68.9 167.2 L 69.0 170.8 L 65.32750568389892 169.23578948974608 L 64.5 169.7 L 60.2 171.9 L 55.5 173.9 L 50.6 175.8 L 45.3 177.6 L 39.8 179.2 L 33.9 180.7 L 27.7 182.1 L 21.1 183.1 L 14.2 183.9 L 13.7 182.2 L 20.1 179.5 L 26.1 176.9 L 31.8 174.5 L 37.2 172.1 L 42.2 169.7 L 46.8 167.3 L 51.1 164.9 L 55.0 162.5 L 58.5 160.0 L 61.7 157.6 Z M 58.0 134.9 L 58.0 150.7 L 142.0 150.7 L 142.0 134.9 Z M 15.0 119.7 L 94.0 119.7 L 94.0 107.2 L 56.0 107.2 L 44.0 113.2 L 44.0 69.5 L 56.0 75.5 L 144.0 75.5 L 150.0 70.5 L 161.0 79.5 L 156.0 83.5 L 156.0 107.2 L 144.0 113.2 L 144.0 107.2 L 106.0 107.2 L 106.0 119.7 L 170.7777777671814 119.7 L 177.0 112.7 L 185.0 119.7 L 185.0 123.7 L 15.0 123.7 Z M 56.0 93.3 L 56.0 103.2 L 144.0 103.2 L 144.0 93.3 Z M 56.0 79.5 L 56.0 89.3 L 144.0 89.3 L 144.0 79.5 Z M 85.6 58.0 L 85.2 56.9 L 84.3 55.6 L 83.91323156356812 55.116539478302 L 81.3 55.8 L 74.8 57.3 L 68.2 58.6 L 61.5 59.8 L 54.9 60.9 L 48.2 62.0 L 41.6 63.0 L 28.2 65.0 L 25.50427350997925 65.35678730010986 L 23.7 68.7 L 21.4 65.9 L 18.3 54.1 L 20.3 54.0 L 27.1 53.6 L 33.8 53.3 L 34.126648902893066 53.28558902740478 L 38.4 50.1 L 43.8 46.2 L 48.056332683563234 43.17145557403565 L 46.7 43.8 L 42.4 42.4 L 42.1 41.7 L 41.3 40.7 L 40.0 39.5 L 38.3 38.2 L 36.3 36.9 L 33.8 35.4 L 31.0 33.9 L 27.9 32.2 L 24.5 30.5 L 20.6 29.0 L 21.1 27.3 L 25.2 28.1 L 29.1 28.4 L 32.7 28.9 L 36.0 29.4 L 36.25415725708008 29.443820190429687 L 37.5 28.5 L 40.5 25.8 L 43.3 23.3 L 45.9 20.9 L 48.4 18.7 L 50.7 16.5 L 52.8 14.5 L 54.7 12.6 L 56.4 10.8 L 57.21818180084229 9.818181800842286 L 57.1 9.7 L 58.0 8.9 L 65.6 18.2 L 66.0 21.8 L 61.89070148468018 20.380424118041994 L 61.0 20.9 L 58.4 22.3 L 55.6 23.7 L 52.7 25.1 L 49.6 26.5 L 46.3 28.0 L 42.7 29.5 L 40.706338024139406 30.234507083892822 L 41.6 30.4 L 44.1 31.0 L 46.3 31.7 L 48.4 32.4 L 50.3 33.4 L 52.3 37.5 L 51.11445779800415 40.97759037017822 L 54.0 38.9 L 58.8 35.5 L 63.3 32.2 L 67.7 29.0 L 71.8 25.9 L 74.95751762390137 23.47114028930664 L 74.9 23.4 L 74.96091365814209 23.46852788925171 L 75.7 22.9 L 79.93111114501953 29.060000038146974 L 82.9 32.4 L 83.1 36.0 L 79.51013822555542 34.49878511428833 L 78.1 35.3 L 73.5 38.0 L 68.7 40.6 L 63.7 43.4 L 58.4 46.2 L 52.9 49.0 L 47.2 51.9 L 45.25794448852539 52.79143533706665 L 47.3 52.7 L 54.1 52.4 L 67.5 52.0 L 74.2 51.9 L 80.9 52.0 L 80.90660095214844 52.00029554367065 L 79.6 50.9 L 77.4 49.1 L 74.8 47.1 L 71.8 45.6 L 72.5 44.0 L 75.7 45.0 L 78.9 45.6 L 81.9 46.4 L 84.6 47.1 L 87.0 48.0 L 89.3 48.9 L 91.4 50.0 L 93.3 51.2 L 95.0 52.7 L 96.5 54.6 L 96.4 59.2 L 93.2 62.5 L 88.7 62.4 L 85.4 59.2 L 85.7 58.8 Z M 164.1 65.6 L 162.0 66.4 L 159.9 67.1 L 157.7 67.6 L 155.6 68.1 L 153.3 68.5 L 148.9 68.9 L 146.6 68.9 L 146.6 62.9 L 126.6 59.9 L 126.6 56.9 L 148.3 56.9 L 150.0 56.8 L 151.7 56.6 L 154.9 56.0 L 156.5 55.6 L 158.1 55.0 L 159.7 54.5 L 161.3 53.8 L 162.8 53.1 L 163.6 52.3 L 164.2 51.1 L 165.0 49.3 L 165.7 46.8 L 166.3 43.7 L 166.7 40.0 L 167.0 35.8 L 167.1 33.45 L 167.1 27.7 L 138.6 27.7 L 137.3 32.9 L 134.5 39.2 L 130.8 44.9 L 126.2 50.0 L 120.8 54.4 L 114.6 58.2 L 107.6 61.4 L 99.9 63.9 L 91.3 65.7 L 90.8 63.9 L 98.5 60.3 L 105.3 56.6 L 111.1 52.7 L 116.0 48.5 L 120.0 44.2 L 123.1 39.7 L 125.4 34.9 L 126.9 29.9 L 127.23207550048828 27.7 L 96.2 27.7 L 96.2 23.7 L 127.71551723480225 23.7 L 127.8 18.8 L 127.8 11.0 L 139.8 13.0 L 142.8 15.0 L 139.8 16.8 L 139.8 18.8 L 139.26301374435425 23.7 L 167.1 23.7 L 173.1 18.7 L 184.1 27.7 L 179.19027776718139 30.64583330154419 L 179.2 31.2 L 179.0 36.4 L 178.7 41.2 L 178.1 45.5 L 177.4 49.5 L 176.4 53.1 L 175.0 56.3 L 173.3 59.2 L 171.1 61.8 L 168.2 63.8 L 166.2 64.7 Z "/></svg>
