<svg xmlns="http://www.w3.org/2000/svg" viewBox="0 -46 200 240"><path fill="#20231f" d="M 15.0 172.0 L 48.0 172.0 L 48.0 117.0 L 60.0 119.0 L 63.0 121.0 L 60.0 122.8 L 60.0 172.0 L 99.0 172.0 L 99.0 92.0 L 59.7 92.0 L 59.7 99.0 L 47.7 105.0 L 47.7 25.9 L 59.7 31.9 L 146.3 31.9 L 152.3 26.9 L 163.3 35.9 L 158.3 39.9 L 158.3 98.0 L 146.3 104.0 L 146.3 92.0 L 111.0 92.0 L 111.0 129.0 L 144.0 129.0 L 154.0 119.0 L 166.0 129.0 L 166.0 133.0 L 111.0 133.0 L 111.0 172.0 L 165.0 172.0 L 175.0 162.0 L 187.0 172.0 L 187.0 176.0 L 15.0 176.0 Z M 59.7 35.9 L 59.7 88.0 L 146.3 88.0 L 146.3 35.9 Z "/></svg>
